<svg xmlns="http://www.w3.org/2000/svg" width="301" height="80" viewBox="0 0 233.087 62">
  <g transform="translate(16 16)">
  <g fill="#181817">
    <circle cx="3" cy="3" r="3"><animate attributeName="opacity" values="0.84;0.24;0.84" dur="3s" begin="-3.1s" repeatCount="indefinite" calcMode="spline" keySplines="0.4 0 0.6 1;0.4 0 0.6 1" keyTimes="0;0.5;1"/></circle>
    <circle cx="11" cy="3" r="3"><animate attributeName="opacity" values="0.5;0.24;0.5" dur="2.2s" begin="-3.4s" repeatCount="indefinite" calcMode="spline" keySplines="0.4 0 0.6 1;0.4 0 0.6 1" keyTimes="0;0.5;1"/></circle>
    <circle cx="19" cy="3" r="3"><animate attributeName="opacity" values="0.73;0.26;0.73" dur="3.1s" begin="-0.5s" repeatCount="indefinite" calcMode="spline" keySplines="0.4 0 0.6 1;0.4 0 0.6 1" keyTimes="0;0.5;1"/></circle>
    <circle cx="27" cy="3" r="3"><animate attributeName="opacity" values="0.36;0.18;0.36" dur="3.2s" begin="-2.7s" repeatCount="indefinite" calcMode="spline" keySplines="0.4 0 0.6 1;0.4 0 0.6 1" keyTimes="0;0.5;1"/></circle>
    <circle cx="3" cy="11" r="3"><animate attributeName="opacity" values="0.7;0.37;0.7" dur="2.7s" begin="-0.1s" repeatCount="indefinite" calcMode="spline" keySplines="0.4 0 0.6 1;0.4 0 0.6 1" keyTimes="0;0.5;1"/></circle>
    <circle cx="11" cy="11" r="3"><animate attributeName="opacity" values="0.64;0.31;0.64" dur="2.1s" begin="-3.4s" repeatCount="indefinite" calcMode="spline" keySplines="0.4 0 0.6 1;0.4 0 0.6 1" keyTimes="0;0.5;1"/></circle>
    <circle cx="19" cy="11" r="3"><animate attributeName="opacity" values="0.49;0.18;0.49" dur="1.5s" begin="-0.4s" repeatCount="indefinite" calcMode="spline" keySplines="0.4 0 0.6 1;0.4 0 0.6 1" keyTimes="0;0.5;1"/></circle>
    <circle cx="27" cy="11" r="3"><animate attributeName="opacity" values="0.74;0.56;0.74" dur="1.5s" begin="-0.2s" repeatCount="indefinite" calcMode="spline" keySplines="0.4 0 0.6 1;0.4 0 0.6 1" keyTimes="0;0.5;1"/></circle>
    <circle cx="3" cy="19" r="3"><animate attributeName="opacity" values="0.14;0.48;0.14" dur="1.2s" begin="-1.8s" repeatCount="indefinite" calcMode="spline" keySplines="0.4 0 0.6 1;0.4 0 0.6 1" keyTimes="0;0.5;1"/></circle>
    <circle cx="11" cy="19" r="3"><animate attributeName="opacity" values="0.56;0.62;0.56" dur="2.8s" begin="-1.7s" repeatCount="indefinite" calcMode="spline" keySplines="0.4 0 0.6 1;0.4 0 0.6 1" keyTimes="0;0.5;1"/></circle>
    <circle cx="19" cy="19" r="3"><animate attributeName="opacity" values="0.37;0.34;0.37" dur="1.8s" begin="-2.8s" repeatCount="indefinite" calcMode="spline" keySplines="0.4 0 0.6 1;0.4 0 0.6 1" keyTimes="0;0.5;1"/></circle>
    <circle cx="27" cy="19" r="3"><animate attributeName="opacity" values="1;0.64;1" dur="1.8s" begin="-1.6s" repeatCount="indefinite" calcMode="spline" keySplines="0.4 0 0.6 1;0.4 0 0.6 1" keyTimes="0;0.5;1"/></circle>
    <circle cx="3" cy="27" r="3"><animate attributeName="opacity" values="0.47;0.71;0.47" dur="2.8s" begin="-1.4s" repeatCount="indefinite" calcMode="spline" keySplines="0.4 0 0.6 1;0.4 0 0.6 1" keyTimes="0;0.5;1"/></circle>
    <circle cx="11" cy="27" r="3"><animate attributeName="opacity" values="0.57;0.13;0.57" dur="1.7s" begin="-3.3s" repeatCount="indefinite" calcMode="spline" keySplines="0.4 0 0.6 1;0.4 0 0.6 1" keyTimes="0;0.5;1"/></circle>
    <circle cx="19" cy="27" r="3"><animate attributeName="opacity" values="0.51;0.11;0.51" dur="2.5s" begin="-0.5s" repeatCount="indefinite" calcMode="spline" keySplines="0.4 0 0.6 1;0.4 0 0.6 1" keyTimes="0;0.5;1"/></circle>
    <circle cx="27" cy="27" r="3"><animate attributeName="opacity" values="0.69;0.89;0.69" dur="1.2s" begin="-1.6s" repeatCount="indefinite" calcMode="spline" keySplines="0.4 0 0.6 1;0.4 0 0.6 1" keyTimes="0;0.5;1"/></circle>
  </g>
  <g transform="translate(44.058 7.5) scale(1.5)" fill="#100f0f">
    <path d="M3.836 9.996C3.09867 9.996 2.44067 9.83267 1.862 9.506C1.28333 9.17 0.826 8.71267 0.49 8.134C0.163333 7.546 0 6.88333 0 6.146V0.0979996H1.092V6.02C1.092 6.57067 1.21333 7.06533 1.456 7.504C1.69867 7.94267 2.02533 8.288 2.436 8.54C2.856 8.792 3.32267 8.918 3.836 8.918C4.37733 8.918 4.858 8.792 5.278 8.54C5.70733 8.288 6.04333 7.94267 6.286 7.504C6.52867 7.06533 6.65 6.57067 6.65 6.02V0.0979996H7.7V6.146C7.7 6.88333 7.532 7.546 7.196 8.134C6.86933 8.71267 6.412 9.17 5.824 9.506C5.24533 9.83267 4.58267 9.996 3.836 9.996Z"/>
    <path d="M16.529 9.898V0.0979996H17.523L23.935 8.582L23.739 8.834C23.711 8.68467 23.6877 8.46067 23.669 8.162C23.6597 7.86333 23.6457 7.52733 23.627 7.154C23.6177 6.77133 23.6083 6.37467 23.599 5.964C23.5897 5.55333 23.5803 5.152 23.571 4.76C23.571 4.368 23.571 4.01333 23.571 3.696V0.0979996H24.663V9.898H23.641L17.257 1.526L17.425 1.232C17.453 1.60533 17.4763 1.974 17.495 2.338C17.523 2.702 17.5417 3.052 17.551 3.388C17.5697 3.724 17.5837 4.032 17.593 4.312C17.6023 4.592 17.607 4.83 17.607 5.026C17.6163 5.222 17.621 5.362 17.621 5.446V9.898H16.529Z"/>
    <path d="M32.4565 9.898L36.2085 0.0979996H37.4545L41.1785 9.898H39.9885L37.5945 3.542C37.5292 3.36467 37.4545 3.15933 37.3705 2.926C37.2958 2.68333 37.2118 2.436 37.1185 2.184C37.0345 1.92267 36.9505 1.67067 36.8665 1.428C36.7918 1.18533 36.7219 0.970666 36.6565 0.784H36.9365C36.8618 1.01733 36.7825 1.25533 36.6985 1.498C36.6239 1.73133 36.5445 1.96933 36.4605 2.212C36.3765 2.44533 36.2925 2.67867 36.2085 2.912C36.1245 3.14533 36.0405 3.37867 35.9565 3.612L33.5765 9.898H32.4565ZM34.0525 7.196L34.4585 6.132H39.0925L39.5405 7.196H34.0525Z"/>
    <path d="M48.9684 9.898V0.0979996H52.9444C53.5138 0.0979996 54.0038 0.200666 54.4144 0.406C54.8344 0.602 55.1564 0.886667 55.3804 1.26C55.6044 1.624 55.7164 2.058 55.7164 2.562C55.7164 3.10333 55.5624 3.57 55.2544 3.962C54.9464 4.34467 54.5264 4.61067 53.9944 4.76L53.9664 4.494C54.4238 4.578 54.8204 4.74133 55.1564 4.984C55.4924 5.21733 55.7538 5.50667 55.9404 5.852C56.1364 6.19733 56.2344 6.58467 56.2344 7.014C56.2344 7.45267 56.1598 7.84933 56.0104 8.204C55.8611 8.55867 55.6464 8.862 55.3664 9.114C55.0958 9.366 54.7644 9.562 54.3724 9.702C53.9898 9.83267 53.5604 9.898 53.0844 9.898H48.9684ZM50.0604 8.834H53.0004C53.4204 8.834 53.7844 8.764 54.0924 8.624C54.4098 8.47467 54.6524 8.26467 54.8204 7.994C54.9978 7.72333 55.0864 7.41067 55.0864 7.056C55.0864 6.72 54.9931 6.426 54.8064 6.174C54.6291 5.922 54.3771 5.726 54.0504 5.586C53.7331 5.446 53.3598 5.376 52.9304 5.376H50.0604V8.834ZM50.0604 4.312H52.8604C53.1964 4.312 53.4951 4.24667 53.7564 4.116C54.0178 3.976 54.2231 3.78933 54.3724 3.556C54.5218 3.31333 54.5964 3.04267 54.5964 2.744C54.5964 2.268 54.4331 1.88533 54.1064 1.596C53.7891 1.30667 53.3411 1.162 52.7624 1.162H50.0604V4.312Z"/>
    <path d="M66.7069 9.898V5.012L66.8049 5.698L62.8429 0.0979996H64.1729L67.4209 4.746L67.1269 4.718L70.1089 0.0979996H71.3689L67.5749 5.852L67.7849 4.9V9.898H66.7069Z"/>
    <path d="M81.5569 10.038C81.0622 10.038 80.5955 9.968 80.1569 9.828C79.7182 9.688 79.3169 9.478 78.9529 9.198C78.5889 8.918 78.2669 8.57267 77.9869 8.162L78.7429 7.322C79.1815 7.94733 79.6295 8.386 80.0869 8.638C80.5535 8.89 81.0762 9.016 81.6549 9.016C82.0749 9.016 82.4575 8.946 82.8029 8.806C83.1482 8.666 83.4189 8.47 83.6149 8.218C83.8109 7.966 83.9089 7.67667 83.9089 7.35C83.9089 7.13533 83.8715 6.944 83.7969 6.776C83.7315 6.608 83.6289 6.45867 83.4889 6.328C83.3489 6.19733 83.1762 6.08067 82.9709 5.978C82.7655 5.87533 82.5275 5.782 82.2569 5.698C81.9955 5.614 81.7015 5.53 81.3749 5.446C80.8989 5.334 80.4789 5.20333 80.1149 5.054C79.7602 4.89533 79.4569 4.704 79.2049 4.48C78.9622 4.256 78.7755 3.99933 78.6449 3.71C78.5235 3.41133 78.4629 3.06133 78.4629 2.66C78.4629 2.27733 78.5422 1.92267 78.7009 1.596C78.8689 1.26933 79.0975 0.989333 79.3869 0.755999C79.6762 0.513333 80.0169 0.326667 80.4089 0.196C80.8009 0.0653333 81.2209 0 81.6689 0C82.1729 0 82.6209 0.0699999 83.0129 0.21C83.4142 0.340666 83.7689 0.536666 84.0769 0.798C84.3849 1.05933 84.6509 1.372 84.8749 1.736L84.1049 2.492C83.9089 2.184 83.6849 1.918 83.4329 1.694C83.1902 1.47 82.9195 1.302 82.6209 1.19C82.3315 1.06867 82.0095 1.008 81.6549 1.008C81.2442 1.008 80.8802 1.078 80.5629 1.218C80.2549 1.358 80.0122 1.554 79.8349 1.806C79.6575 2.04867 79.5689 2.32867 79.5689 2.646C79.5689 2.87933 79.6109 3.08933 79.6949 3.276C79.7789 3.45333 79.9095 3.612 80.0869 3.752C80.2735 3.88267 80.5115 4.004 80.8009 4.116C81.0995 4.21867 81.4542 4.31667 81.8649 4.41C82.3502 4.522 82.7842 4.65733 83.1669 4.816C83.5589 4.97467 83.8902 5.166 84.1609 5.39C84.4409 5.60467 84.6509 5.85667 84.7909 6.146C84.9402 6.43533 85.0149 6.76667 85.0149 7.14C85.0149 7.71867 84.8702 8.22733 84.5809 8.666C84.2915 9.09533 83.8855 9.43133 83.3629 9.674C82.8495 9.91667 82.2475 10.038 81.5569 10.038Z"/>
    <path d="M96.0744 10.038C95.5798 10.038 95.1131 9.968 94.6744 9.828C94.2358 9.688 93.8344 9.478 93.4704 9.198C93.1064 8.918 92.7844 8.57267 92.5044 8.162L93.2604 7.322C93.6991 7.94733 94.1471 8.386 94.6044 8.638C95.0711 8.89 95.5938 9.016 96.1724 9.016C96.5924 9.016 96.9751 8.946 97.3204 8.806C97.6658 8.666 97.9364 8.47 98.1324 8.218C98.3284 7.966 98.4264 7.67667 98.4264 7.35C98.4264 7.13533 98.3891 6.944 98.3144 6.776C98.2491 6.608 98.1464 6.45867 98.0064 6.328C97.8664 6.19733 97.6938 6.08067 97.4884 5.978C97.2831 5.87533 97.0451 5.782 96.7744 5.698C96.5131 5.614 96.2191 5.53 95.8924 5.446C95.4164 5.334 94.9964 5.20333 94.6324 5.054C94.2778 4.89533 93.9744 4.704 93.7224 4.48C93.4798 4.256 93.2931 3.99933 93.1624 3.71C93.0411 3.41133 92.9804 3.06133 92.9804 2.66C92.9804 2.27733 93.0598 1.92267 93.2184 1.596C93.3864 1.26933 93.6151 0.989333 93.9044 0.755999C94.1938 0.513333 94.5344 0.326667 94.9264 0.196C95.3184 0.0653333 95.7384 0 96.1864 0C96.6904 0 97.1384 0.0699999 97.5304 0.21C97.9318 0.340666 98.2864 0.536666 98.5944 0.798C98.9024 1.05933 99.1684 1.372 99.3924 1.736L98.6224 2.492C98.4264 2.184 98.2024 1.918 97.9504 1.694C97.7078 1.47 97.4371 1.302 97.1384 1.19C96.8491 1.06867 96.5271 1.008 96.1724 1.008C95.7618 1.008 95.3978 1.078 95.0804 1.218C94.7724 1.358 94.5298 1.554 94.3524 1.806C94.1751 2.04867 94.0864 2.32867 94.0864 2.646C94.0864 2.87933 94.1284 3.08933 94.2124 3.276C94.2964 3.45333 94.4271 3.612 94.6044 3.752C94.7911 3.88267 95.0291 4.004 95.3184 4.116C95.6171 4.21867 95.9718 4.31667 96.3824 4.41C96.8678 4.522 97.3018 4.65733 97.6844 4.816C98.0764 4.97467 98.4078 5.166 98.6784 5.39C98.9584 5.60467 99.1684 5.85667 99.3084 6.146C99.4578 6.43533 99.5324 6.76667 99.5324 7.14C99.5324 7.71867 99.3878 8.22733 99.0984 8.666C98.8091 9.09533 98.4031 9.43133 97.8804 9.674C97.3671 9.91667 96.7651 10.038 96.0744 10.038Z"/>
  </g>
  </g>
</svg>